<?xml version="1.0" encoding="utf-8"?>
<!-- Generator: Adobe Illustrator 16.0.0, SVG Export Plug-In . SVG Version: 6.00 Build 0)  -->
<!DOCTYPE svg PUBLIC "-//W3C//DTD SVG 1.1//EN" "http://www.w3.org/Graphics/SVG/1.1/DTD/svg11.dtd">
<svg version="1.1" id="Capa_1" xmlns="http://www.w3.org/2000/svg" xmlns:xlink="http://www.w3.org/1999/xlink" x="0px" y="0px"
	 width="612px" height="792px" viewBox="0 0 612 792" enable-background="new 0 0 612 792" xml:space="preserve">
<path d="M512.581,192.028c-54.83,0-99.437,44.606-99.437,99.437c0,6.356,0.603,12.621,1.775,18.758
	c-9.884-3.57-20.414-5.442-31.235-5.46l-86.499-0.143c-24.5,0-46.579,10.629-61.87,27.513H45.603
	c-12.182,0-23.633,4.744-32.246,13.358C4.743,354.102,0,365.554,0,377.734c0,25.155,20.458,45.62,45.603,45.62h168.033
	l-0.091,55.534c-0.027,16.464-13.443,29.856-29.955,29.857l-16.819-0.029c-25.11,0-45.54,20.43-45.54,45.541
	c0,25.138,20.449,45.622,45.587,45.662l31.255,0.051c60.03,0,108.95-48.84,109.049-108.872l0.042-25.819h85.992l-0.17,84.477
	c-0.028,13.406,5.172,26.014,14.643,35.502c9.47,9.488,22.065,14.713,35.471,14.713h40.632c13.214,0,23.962-10.75,23.962-23.963
	c0-19.556-13.847-35.938-32.252-39.859l0.267-139.066c0.007-4.612-0.323-9.173-0.977-13.655c11.923,4.905,24.735,7.454,37.85,7.454
	c54.82,0,99.419-44.6,99.419-99.419C612,236.635,567.401,192.028,512.581,192.028z M45.603,406.383
	c-15.788,0-28.631-12.852-28.631-28.648c0-7.646,2.979-14.836,8.387-20.244c5.408-5.407,12.598-8.387,20.244-8.387h177.806
	c-6.169,11.614-9.69,24.839-9.715,38.87l-0.029,18.409H45.603L45.603,406.383z M490.721,576.01c0,3.855-3.137,6.99-6.99,6.99
	h-40.632c-8.866,0-17.195-3.455-23.458-9.73c-6.263-6.276-9.701-14.612-9.684-23.479l0.231-120.786
	c0.009-4.686-3.786-8.492-8.472-8.5c-0.005,0-0.01,0-0.014,0c-4.682,0-8.478,3.79-8.486,8.472l-0.03,19.331h-85.995l0.031-19.473
	c0.008-4.686-3.784-8.491-8.472-8.5c-0.004,0-0.008,0-0.014,0c-4.68,0-8.479,3.79-8.486,8.472l-0.045,27.958l-0.057,34.306
	c-0.083,50.69-41.39,91.929-92.077,91.929l-31.228-0.051c-15.794-0.025-28.643-12.896-28.643-28.69
	c0-15.754,12.816-28.569,28.615-28.569l16.822,0.029c25.807-0.001,46.835-20.997,46.877-46.802l0.148-90.914
	c0.061-36.62,29.901-66.411,66.631-66.411l86.36,0.143c20.086,0.032,38.959,7.886,53.139,22.112
	c14.18,14.229,21.972,33.125,21.938,53.208l-0.263,138.205h-9.286c-4.686,0-8.486,3.801-8.486,8.486s3.801,8.485,8.486,8.485h17.756
	C480.055,552.229,490.721,562.897,490.721,576.01z M512.581,373.91c-15.701,0-30.87-4.396-44.049-12.723
	c-4.55-10.815-11.184-20.761-19.716-29.322c-4.124-4.137-8.579-7.818-13.293-11.053c-3.572-9.341-5.407-19.199-5.407-29.348
	c0-45.471,36.993-82.465,82.465-82.465c45.461,0,82.446,36.993,82.446,82.465C595.028,336.925,558.041,373.91,512.581,373.91z"/>
<path fill="#6F2D91" d="M595.028,291.465c0,52.329-40.473,82.445-82.446,82.445s-82.465-30.116-82.465-82.445
	S470.608,209,512.581,209S595.028,239.135,595.028,291.465z"/>
</svg>
