<?xml version="1.0" encoding="utf-8"?>
<!-- Generator: Adobe Illustrator 16.0.0, SVG Export Plug-In . SVG Version: 6.00 Build 0)  -->
<!DOCTYPE svg PUBLIC "-//W3C//DTD SVG 1.1//EN" "http://www.w3.org/Graphics/SVG/1.1/DTD/svg11.dtd">
<svg version="1.1" id="Layer_1" xmlns="http://www.w3.org/2000/svg" xmlns:xlink="http://www.w3.org/1999/xlink" x="0px" y="0px"
	 width="612px" height="792px" viewBox="0 0 612 792" enable-background="new 0 0 612 792" xml:space="preserve">
<g>
	<circle fill="#6F2D91" cx="286.219" cy="168.968" r="29.613"/>
	<path fill="#6F2D91" d="M324.369,208.452h-8.499h-59.226h-8.499c-11.657,0-21.113,9.456-21.113,21.113v62.79
		c0,8.173,6.633,14.806,14.807,14.806c8.173,0,14.806-6.633,14.806-14.806v14.806l-9.812,107.88
		c-0.039,0.464-0.059,0.938-0.059,1.412v3.494c0,8.588,6.959,15.547,15.546,15.547c7.986,0,14.669-6.051,15.468-13.997l8.47-84.713
		l8.47,84.713c0.799,7.946,7.481,13.997,15.467,13.997c8.588,0,15.547-6.959,15.547-15.547v-3.494c0-0.474-0.02-0.938-0.059-1.412
		l-9.813-107.88v-14.806c0,8.173,6.634,14.806,14.807,14.806s14.807-6.633,14.807-14.806v-62.79
		C345.484,217.908,336.028,208.452,324.369,208.452z"/>
</g>
<g>
	<path fill="#333333" d="M572.516,378.429V90H0v394.839h454.064V702h118.451V552.12c3.1,1.105,6.396,1.815,9.871,1.815
		c16.326,0,29.613-13.286,29.613-29.612v-93.469C612,406,595.288,385.004,572.516,378.429z M19.741,465.097V109.742h533.032v163.266
		c-10.492-9.417-24.302-15.201-39.483-15.201c-32.663,0-59.226,26.563-59.226,59.226s26.563,59.227,59.226,59.227
		c15.172,0,28.991-5.785,39.483-15.212v15.212H513.29h-38.447c-33.246-16.969-57.489-51.428-66.472-65.652
		c-5.271-8.341-14.332-13.315-24.253-13.315c-15.862,0-28.764,12.911-28.764,28.764c0,9.407,2.754,18.597,7.956,26.582
		c14.204,21.806,44.449,60.342,90.754,80.271v32.189H19.741z M552.774,317.032c0,21.775-17.708,39.484-39.483,39.484
		s-39.484-17.709-39.484-39.484s17.709-39.483,39.484-39.483C535.056,277.549,552.774,295.257,552.774,317.032z M592.258,524.323
		c0,5.448-4.433,9.871-9.871,9.871c-5.439,0-9.871-4.423-9.871-9.871v-98.71h-19.742v98.71v157.936h-29.612V544.065h-19.742v138.193
		h-29.613V419.454l-6.366-2.419c-46.345-17.63-76.697-58.446-87.596-75.167c-3.099-4.777-4.747-10.246-4.747-15.813
		c0-4.975,4.047-9.022,9.021-9.022c3.109,0,5.933,1.54,7.562,4.116c12.506,19.792,39.099,55.722,76.549,73.864l2.034,0.987h43.027
		h44.113c19.219,0,34.854,15.636,34.854,34.854V524.323L592.258,524.323z"/>
	<rect x="375.057" y="139.355" fill="#333333" width="118.452" height="19.741"/>
	<rect x="513.25" y="139.355" fill="#333333" width="19.742" height="19.741"/>
	<rect x="39.445" y="139.355" fill="#333333" width="118.451" height="19.741"/>
	<rect x="177.638" y="139.355" fill="#333333" width="19.742" height="19.741"/>
	<rect x="39.445" y="415.742" fill="#333333" width="118.451" height="19.742"/>
	<rect x="177.638" y="415.742" fill="#333333" width="19.742" height="19.742"/>
	<polygon fill="#333333" points="108.58,188.71 88.839,188.71 88.839,215.125 193.747,257.095 201.081,238.765 108.58,201.769 	"/>
	<polygon fill="#333333" points="483.677,215.125 483.677,188.71 463.935,188.71 463.935,201.769 371.424,238.765 378.759,257.095 	
		"/>
	<polygon fill="#333333" points="88.839,359.043 88.839,386.129 108.58,386.129 108.58,373.731 200.252,346.23 194.586,327.318 	"/>
</g>
</svg>
