<?xml version="1.0" encoding="utf-8"?>
<!-- Generator: Adobe Illustrator 16.0.0, SVG Export Plug-In . SVG Version: 6.00 Build 0)  -->
<!DOCTYPE svg PUBLIC "-//W3C//DTD SVG 1.1//EN" "http://www.w3.org/Graphics/SVG/1.1/DTD/svg11.dtd">
<svg version="1.1" id="Layer_1" xmlns="http://www.w3.org/2000/svg" xmlns:xlink="http://www.w3.org/1999/xlink" x="0px" y="0px"
	 width="612px" height="792px" viewBox="0 0 612 792" enable-background="new 0 0 612 792" xml:space="preserve">
<g>
	<circle fill="#852E8E" cx="286.219" cy="168.968" r="29.613"/>
	<path fill="#852E8E" d="M324.368,208.452h-8.499h-59.226h-8.499c-11.657,0-21.113,9.456-21.113,21.113v62.79
		c0,8.173,6.634,14.806,14.808,14.806c8.173,0,14.806-6.633,14.806-14.806v14.806l-9.812,107.88c-0.039,0.464-0.06,0.938-0.06,1.412
		v3.494c0,8.588,6.959,15.547,15.546,15.547c7.986,0,14.669-6.051,15.469-13.997l8.47-84.713l8.47,84.713
		c0.799,7.946,7.48,13.997,15.467,13.997c8.588,0,15.547-6.959,15.547-15.547v-3.494c0-0.474-0.02-0.938-0.059-1.412l-9.813-107.88
		v-14.806c0,8.173,6.635,14.806,14.808,14.806s14.807-6.633,14.807-14.806v-62.79C345.484,217.908,336.028,208.452,324.368,208.452z
		"/>
</g>
<g>
	<path fill="#DDDDDD" stroke="#000000" stroke-miterlimit="10" d="M572.516,378.429V90H0v394.84h454.063V702h118.451V552.12
		c3.1,1.105,6.396,1.815,9.871,1.815c16.326,0,29.612-13.286,29.612-29.612v-93.469C612,406,595.287,385.004,572.516,378.429z
		 M19.741,465.097V109.742h533.031v163.266c-10.492-9.417-24.302-15.2-39.483-15.2c-32.662,0-59.226,26.563-59.226,59.226
		s26.563,59.228,59.226,59.228c15.173,0,28.991-5.785,39.483-15.213v15.213h-39.483h-38.446
		c-33.246-16.97-57.489-51.429-66.473-65.652c-5.271-8.341-14.332-13.315-24.253-13.315c-15.861,0-28.764,12.911-28.764,28.765
		c0,9.406,2.754,18.597,7.956,26.582c14.204,21.806,44.449,60.342,90.754,80.271v32.189H19.741V465.097z M552.774,317.032
		c0,21.775-17.708,39.484-39.482,39.484c-21.775,0-39.484-17.709-39.484-39.484s17.709-39.483,39.484-39.483
		C535.056,277.549,552.774,295.257,552.774,317.032z M592.258,524.323c0,5.448-4.434,9.871-9.871,9.871
		c-5.439,0-9.871-4.423-9.871-9.871v-98.71h-19.742v98.71V682.26h-29.612V544.065H503.42v138.193h-29.613V419.454l-6.366-2.419
		c-46.345-17.63-76.697-58.446-87.596-75.167c-3.1-4.777-4.747-10.246-4.747-15.813c0-4.976,4.047-9.022,9.021-9.022
		c3.109,0,5.934,1.54,7.563,4.116c12.506,19.792,39.099,55.722,76.549,73.864l2.034,0.986h43.027h44.112
		c19.219,0,34.854,15.637,34.854,34.854V524.323L592.258,524.323z"/>
	<rect x="375.057" y="139.355" fill="#DDDDDD" stroke="#000000" stroke-miterlimit="10" width="118.452" height="19.741"/>
	<rect x="513.25" y="139.355" fill="#DDDDDD" stroke="#000000" stroke-miterlimit="10" width="19.741" height="19.741"/>
	<rect x="39.445" y="139.355" fill="#DDDDDD" stroke="#000000" stroke-miterlimit="10" width="118.451" height="19.741"/>
	<rect x="177.638" y="139.355" fill="#DDDDDD" stroke="#000000" stroke-miterlimit="10" width="19.742" height="19.741"/>
	<rect x="39.445" y="415.742" fill="#DDDDDD" stroke="#000000" stroke-miterlimit="10" width="118.451" height="19.742"/>
	<rect x="177.638" y="415.742" fill="#DDDDDD" stroke="#000000" stroke-miterlimit="10" width="19.742" height="19.742"/>
	<polygon fill="#DDDDDD" stroke="#000000" stroke-miterlimit="10" points="108.58,188.71 88.839,188.71 88.839,215.125 
		193.747,257.095 201.081,238.765 108.58,201.769 	"/>
	<polygon fill="#DDDDDD" stroke="#000000" stroke-miterlimit="10" points="483.677,215.125 483.677,188.71 463.935,188.71 
		463.935,201.769 371.424,238.765 378.759,257.095 	"/>
	<polygon fill="#DDDDDD" stroke="#000000" stroke-miterlimit="10" points="88.839,359.043 88.839,386.129 108.58,386.129 
		108.58,373.731 200.252,346.23 194.586,327.318 	"/>
</g>
</svg>
