<?xml version="1.0" encoding="utf-8"?>
<!-- Generator: Adobe Illustrator 16.0.0, SVG Export Plug-In . SVG Version: 6.00 Build 0)  -->
<!DOCTYPE svg PUBLIC "-//W3C//DTD SVG 1.1//EN" "http://www.w3.org/Graphics/SVG/1.1/DTD/svg11.dtd">
<svg version="1.1" id="Layer_1" xmlns="http://www.w3.org/2000/svg" xmlns:xlink="http://www.w3.org/1999/xlink" x="0px" y="0px"
	 width="612px" height="792px" viewBox="0 0 612 792" enable-background="new 0 0 612 792" xml:space="preserve">
<polygon fill="#852E8E" points="387.331,386.032 288.592,386.032 268.844,366.284 268.844,267.545 288.592,247.797 387.331,247.797 
	407.079,267.545 407.079,366.284 "/>
<g>
	<path fill="#DDDDDD" stroke="#333333" stroke-miterlimit="10" d="M565.044,317.003c0-123.582-100.509-225.402-224.041-226.982
		C340.034,90.01,339.087,90,338.13,90c-106.659,0-199.899,75.98-222.354,181.662c-5.539,26.097-6.229,52.993-2.072,80.02
		L46.936,471.088l73.81,21.131l0.157,120.917h98.729v88.866h19.748V593.386h-98.75l-0.158-116.06l-64.121-18.365l57.97-103.678
		l-0.582-3.437c-4.354-25.713-3.909-51.315,1.362-76.079c20.509-96.587,105.643-166.021,203.029-166.021
		c0.867,0,1.757,0.01,2.626,0.021c112.791,1.441,204.55,94.416,204.55,207.246l0.01,36.029
		c0.061,79.102-38.894,153.155-104.189,198.103l-4.275,2.942V702h19.748V564.406c68.081-48.896,108.524-127.513,108.466-211.383
		L565.044,317.003z"/>
	<path fill="#DDDDDD" stroke="#333333" stroke-miterlimit="10" d="M377.457,139.182c-16.331,0-29.621,13.29-29.621,29.622
		c0,12.854,8.283,23.717,19.748,27.805v51.188h19.747v-51.188c11.464-4.088,19.748-14.949,19.748-27.805
		C407.079,152.472,393.788,139.182,377.457,139.182z M377.457,178.678c-5.45,0-9.873-4.425-9.873-9.874
		c0-5.45,4.423-9.874,9.873-9.874s9.874,4.424,9.874,9.874C387.331,174.254,382.907,178.678,377.457,178.678z"/>
	<path fill="#DDDDDD" stroke="#333333" stroke-miterlimit="10" d="M298.466,139.182c-16.331,0-29.622,13.29-29.622,29.622
		c0,12.854,8.284,23.717,19.748,27.805v51.188h19.748v-51.188c11.464-4.088,19.748-14.949,19.748-27.805
		C328.088,152.472,314.797,139.182,298.466,139.182z M298.466,178.678c-5.45,0-9.874-4.425-9.874-9.874
		c0-5.45,4.424-9.874,9.874-9.874c5.449,0,9.874,4.424,9.874,9.874C308.34,174.254,303.915,178.678,298.466,178.678z"/>
	<path fill="#DDDDDD" stroke="#333333" stroke-miterlimit="10" d="M433.71,267.545h-26.631v19.748h32.613l36.504-24.34v-16.974
		c11.464-4.088,19.748-14.949,19.748-27.806c0-16.331-13.29-29.621-29.622-29.621c-16.331,0-29.622,13.29-29.622,29.621
		c0,12.855,8.285,23.718,19.748,27.806v6.408L433.71,267.545z M466.323,208.302c5.451,0,9.874,4.424,9.874,9.873
		c0,5.45-4.423,9.874-9.874,9.874c-5.45,0-9.874-4.424-9.874-9.874C456.448,212.725,460.872,208.302,466.323,208.302z"/>
	<path fill="#DDDDDD" stroke="#333333" stroke-miterlimit="10" d="M476.198,445.276c0-12.854-8.284-23.717-19.748-27.805v-51.188
		h11.691c4.088,11.464,14.949,19.748,27.805,19.748c16.332,0,29.622-13.29,29.622-29.622c0-16.331-13.29-29.622-29.622-29.622
		c-12.854,0-23.717,8.285-27.805,19.748h-61.062v19.748H436.7v51.188c-11.463,4.088-19.748,14.949-19.748,27.805
		c0,16.332,13.291,29.622,29.622,29.622C462.906,474.898,476.198,461.608,476.198,445.276z M495.946,346.536
		c5.45,0,9.874,4.424,9.874,9.874c0,5.451-4.424,9.874-9.874,9.874s-9.874-4.423-9.874-9.874
		C486.072,350.96,490.494,346.536,495.946,346.536z M436.7,445.276c0-5.45,4.425-9.874,9.874-9.874c5.451,0,9.874,4.424,9.874,9.874
		c0,5.451-4.423,9.874-9.874,9.874C441.125,455.15,436.7,450.727,436.7,445.276z"/>
	<path fill="#DDDDDD" stroke="#333333" stroke-miterlimit="10" d="M242.214,366.284h26.63v-19.748h-32.613l-36.505,24.34v26.849
		c-11.463,4.088-19.748,14.948-19.748,27.805c0,16.332,13.291,29.622,29.622,29.622c16.332,0,29.622-13.29,29.622-29.622
		c0-12.855-8.284-23.717-19.748-27.805v-16.282L242.214,366.284z M209.6,435.402c-5.45,0-9.874-4.423-9.874-9.874
		c0-5.45,4.424-9.874,9.874-9.874c5.451,0,9.874,4.424,9.874,9.874C219.474,430.979,215.051,435.402,209.6,435.402z"/>
	<path fill="#DDDDDD" stroke="#333333" stroke-miterlimit="10" d="M207.783,267.545c-4.089-11.464-14.949-19.748-27.807-19.748
		c-16.331,0-29.621,13.29-29.621,29.622c0,16.331,13.29,29.622,29.621,29.622c12.856,0,23.718-8.285,27.807-19.748h61.061v-19.748
		h-29.622V245.98c11.464-4.088,19.748-14.949,19.748-27.805c0-16.332-13.29-29.622-29.622-29.622
		c-16.331,0-29.622,13.29-29.622,29.622c0,12.854,8.285,23.717,19.748,27.805v21.564H207.783z M229.348,208.302
		c5.451,0,9.874,4.424,9.874,9.873c0,5.45-4.423,9.874-9.874,9.874c-5.45,0-9.874-4.424-9.874-9.874
		C219.474,212.725,223.898,208.302,229.348,208.302z M179.978,287.293c-5.45,0-9.874-4.424-9.874-9.874s4.424-9.874,9.874-9.874
		c5.451,0,9.874,4.424,9.874,9.874S185.429,287.293,179.978,287.293z"/>
	<path fill="#DDDDDD" stroke="#333333" stroke-miterlimit="10" d="M387.331,427.345v-41.313h-19.747v41.313
		c-11.465,4.088-19.748,14.949-19.748,27.805c0,16.332,13.29,29.622,29.622,29.622c16.33,0,29.621-13.29,29.621-29.622
		C407.079,442.296,398.795,431.433,387.331,427.345z M377.457,465.024c-5.45,0-9.873-4.423-9.873-9.874
		c0-5.45,4.423-9.874,9.873-9.874s9.874,4.424,9.874,9.874C387.331,460.601,382.907,465.024,377.457,465.024z"/>
	<path fill="#DDDDDD" stroke="#333333" stroke-miterlimit="10" d="M308.34,427.345v-41.313h-19.748v41.313
		c-11.464,4.088-19.748,14.949-19.748,27.805c0,16.332,13.291,29.622,29.622,29.622s29.622-13.29,29.622-29.622
		C328.088,442.296,319.804,431.433,308.34,427.345z M298.466,465.024c-5.45,0-9.874-4.423-9.874-9.874
		c0-5.45,4.424-9.874,9.874-9.874c5.449,0,9.874,4.424,9.874,9.874C308.34,460.601,303.915,465.024,298.466,465.024z"/>
	<rect x="298.466" y="287.293" fill="#DDDDDD" stroke="#333333" stroke-miterlimit="10" width="78.991" height="19.748"/>
	<rect x="298.466" y="326.788" fill="#DDDDDD" stroke="#333333" stroke-miterlimit="10" width="49.37" height="19.748"/>
</g>
</svg>
