<?xml version="1.0" encoding="utf-8"?>
<!-- Generator: Adobe Illustrator 16.0.0, SVG Export Plug-In . SVG Version: 6.00 Build 0)  -->
<!DOCTYPE svg PUBLIC "-//W3C//DTD SVG 1.1//EN" "http://www.w3.org/Graphics/SVG/1.1/DTD/svg11.dtd">
<svg version="1.1" id="Capa_1" xmlns="http://www.w3.org/2000/svg" xmlns:xlink="http://www.w3.org/1999/xlink" x="0px" y="0px"
	 width="612px" height="792px" viewBox="0 0 612 792" enable-background="new 0 0 612 792" xml:space="preserve">
<g>
	<path fill="#DDDDDD" stroke="#000000" stroke-miterlimit="10" d="M364.683,356.945c-3.896-10.934-7.575-21.26-11.056-31.844
		c-28.693-87.278,35.003-225.349,35.649-226.733c1.229-2.632,0.093-5.761-2.537-6.989c-2.632-1.231-5.761-0.095-6.989,2.536
		c-0.123,0.263-9.214,19.842-19.06,48.727c-7.94-4.978-23.479-12.327-43.687-10.334c11.654-21.309,20.684-33.717,20.843-33.935
		c1.719-2.341,1.215-5.631-1.124-7.35c-2.34-1.72-5.63-1.219-7.35,1.121c-0.745,1.014-12.058,16.538-25.762,42.792
		c-0.361,0.105-0.715,0.193-1.077,0.306c-7.03,2.176-15.907,2.552-23.738,2.883c-12.974,0.55-25.229,1.069-26.774,10.894
		c-0.105,0.665-0.241,1.425-0.392,2.259c-1.337,7.456-3.829,21.336,4.834,28.952c5.442,4.786,13.74,5.847,25.224,3.224
		c-1.213,3.143-2.414,6.338-3.595,9.609c-2.777,7.703-5.506,15.983-8.08,24.738c-7.717,4.556-17.243,5.251-25.678,5.856
		c-10.894,0.783-23.24,1.67-24.454,13.836c-0.063,0.619-0.137,1.282-0.214,1.982c-0.847,7.547-2.264,20.18,6.525,26.896
		c3.358,2.566,7.73,3.852,13.179,3.852c5.406,0,11.886-1.281,19.47-3.816c-2.389,14.456-4.058,29.67-4.687,45.457
		c-6.42,1.816-12.7,2.263-18.127,2.643c-9.707,0.679-20.709,1.448-21.917,12.862c-0.726,6.852-2.933,27.703,9.751,36.263
		c3.362,2.27,7.295,3.406,11.842,3.406c5.711,0,12.406-1.823,20.138-5.422c1.236,11.29,3.103,22.753,5.692,34.332
		c-5.613,1.549-11.593,1.998-17.116,2.41c-10.543,0.788-22.494,1.681-23.707,13.145l-0.014,0.129
		c-0.842,7.941-2.811,26.54,8.819,34.832c8.292,5.912,20.598,4.92,37.625-3.042c2.357-1.103,4.768-2.055,7.217-2.881
		c4.956,16.583,8.995,32.434,12.285,47.51c-0.268,0.093-0.534,0.178-0.802,0.272c-8.365,2.998-17.752,2.964-26.029,2.941
		c-12.038-0.039-24.493-0.079-27.045,11.68l-0.242,1.104c-1.844,8.349-5.273,23.889,4.391,33.025
		c7.373,6.971,19.896,7.854,38.286,2.698c6.695-1.877,13.354-2.907,19.966-3.102c1.638,12.436,2.749,24.114,3.451,34.988
		c-0.32,0.023-0.639,0.035-0.96,0.065c-8.013,0.701-14.908-0.232-20.993-1.057c-10.263-1.391-20.876-2.83-25.339,9.04
		c-1.576,4.194-6.373,16.958,0.965,27.557c6.612,9.55,20.587,14.193,42.725,14.195c1.418,0,2.81,0.059,4.174,0.167
		c-0.011,0.244-0.021,0.499-0.032,0.742c-2.198,45.858-11.23,71.453-11.318,71.7c-0.987,2.731,0.426,5.746,3.156,6.733
		c0.592,0.213,1.194,0.314,1.788,0.314c2.151,0,4.172-1.33,4.945-3.472c0.39-1.076,9.556-26.894,11.897-74.046
		c31.754,9.593,45.869,48.579,48.231,55.797c-1.746,5.1-3.578,10.278-5.501,15.538c-0.997,2.729,0.407,5.747,3.134,6.744
		c0.596,0.218,1.205,0.32,1.805,0.32c2.145,0,4.16-1.322,4.938-3.454C425.095,526.499,393,436.42,364.683,356.945z M374.152,624.612
		c-9.652-17.971-31.186-49.409-64.992-52.817c-0.681-10.804-1.754-22.384-3.334-34.697c15.898,1.727,31.487,8.368,46.602,19.909
		c16.886,12.895,27.449,27.848,29.535,30.93C379.919,599.64,377.333,611.851,374.152,624.612z M359.077,548.853
		c-17.366-13.331-35.886-20.842-54.71-22.369c-1.456-9.873-3.249-20.19-5.406-30.904c42.986-8.512,82.854,27.51,89.17,33.546
		c-0.422,13.958-1.66,28.688-3.879,44.33C378.812,566.76,370.3,557.467,359.077,548.853z M279.223,420.855
		c-2.024-6.208-3.788-12.394-5.361-18.553c1.111-0.603,2.21-1.251,3.282-1.98c38.062-25.858,89.348,5.257,93.845,8.085
		c3.517,11.574,6.729,23.482,9.404,35.93c-18.352-8.325-60.736-24.472-98.965-16.579
		C280.705,425.468,279.978,423.171,279.223,420.855z M366.326,393.728c-19.264-9.757-60.653-25.417-94.992-2.17
		c-2.549-11.796-4.346-23.472-5.459-34.953c47.138-22.331,82.232-0.928,88.803,3.596c0.032,0.09,0.065,0.183,0.098,0.273
		C358.684,371.442,362.608,382.463,366.326,393.728z M264.453,319.325c1.938-0.847,3.882-1.816,5.816-2.961
		c30.026-17.78,62.352-5.208,69.551-1.997c1.071,4.844,2.337,9.522,3.815,14.02c1.838,5.588,3.771,11.218,5.732,16.819
		c-16.273-7.607-46.783-16.153-84.355,0.245C264.472,336.603,264.291,327.884,264.453,319.325z M287.875,196.936
		c0.205-0.571,0.416-1.128,0.623-1.697c5.745-1.612,14.877-3.451,18.569-2.778c2.863,0.515,5.595-1.375,6.114-4.233
		s-1.376-5.595-4.232-6.113c-4.375-0.795-10.749,0.123-15.906,1.197c0.451-1.138,0.903-2.272,1.359-3.393
		c29.132-7.5,47.51,0.506,53.877,4.156c-2.574,10.003-4.756,19.705-6.547,29.1c-10.839-4.295-34.344-11.054-58.743-1.829
		C284.585,206.352,286.221,201.533,287.875,196.936z M278.939,224.762c25.162-13.835,51.969-4.737,60.911-0.955
		c-1.634,10.044-2.801,19.72-3.492,29.014c-11.17-4.339-34.661-10.597-63.803-2.317C274.468,241.543,276.623,232.94,278.939,224.762
		z M357.274,152.971c-2.105,6.564-4.2,13.493-6.21,20.699c-8.658-4.338-26.247-10.338-51.634-5.632
		c3.842-8.736,7.712-16.817,11.441-24.126C334.04,138.815,351.229,148.717,357.274,152.971z M285.312,171.573
		c-10.802,3.41-18.582,3.683-21.903,0.759c-4.208-3.7-2.399-13.782-1.427-19.197c0.149-0.834,0.287-1.599,0.397-2.281
		c1.892-1.587,10.874-1.968,16.862-2.223c5.807-0.245,12.14-0.532,18.235-1.507c-3.59,7.394-7.255,15.434-10.865,24.062
		C286.175,171.32,285.751,171.433,285.312,171.573z M232.577,258.015c-4.061-3.104-3.098-11.688-2.462-17.368
		c0.083-0.745,0.162-1.452,0.229-2.11c0.286-2.869,3.933-3.612,14.744-4.39c6.448-0.463,13.983-1.006,21.323-3.332
		c-1.969,7.58-3.791,15.461-5.402,23.628C241.966,261.867,235.023,259.884,232.577,258.015z M266.919,284.179
		c0.339-0.397,10.124-10.889,27.268-8.145c2.859,0.45,5.563-1.493,6.022-4.361c0.459-2.866-1.494-5.563-4.361-6.022
		c-12.08-1.935-21.008,0.834-26.885,4.03c0.402-2.499,0.822-4.979,1.266-7.433c32.046-10.945,57.71-1.723,65.522,1.744
		c-0.464,13.6,0.149,26.325,1.85,38.143c-14.208-5.073-43.871-11.885-72.688,5.18c-0.001,0-0.002,0.001-0.004,0.001
		C265.334,299.468,266.015,291.698,266.919,284.179z M229.741,354.914c-3.395-2.291-7.048-8.739-5.175-26.438
		c0.22-2.082,1.762-2.749,12.191-3.478c4.924-0.343,10.839-0.766,17.145-2.216c-0.076,9.06,0.188,18.279,0.886,27.645
		C243.055,356.497,234.402,358.059,229.741,354.914z M262.683,433.895c-12.912,6.039-22.27,7.425-27.063,4.007
		c-6.631-4.728-5.115-19.049-4.467-25.163l0.014-0.129c0.25-2.356,4.34-3.04,14.031-3.764c5.732-0.428,12.291-0.928,18.792-2.676
		c1.548,5.959,3.279,11.94,5.236,17.945c0.697,2.138,1.367,4.256,2.035,6.372C268.356,431.457,265.49,432.583,262.683,433.895z
		 M284.534,437.885c40.974-7.863,88.86,14.57,98.389,19.331c3.196,17.946,5.195,37.073,5.37,57.933
		c-15.679-13.118-51.671-37.981-91.497-29.883C293.497,470.208,289.459,454.397,284.534,437.885z M272.36,529.648
		c-14.125,3.96-23.884,3.889-28.222-0.214c-5.337-5.046-2.741-16.802-1.348-23.117l0.251-1.143
		c0.673-3.105,5.872-3.417,16.731-3.394c8.528,0.029,19.1,0.055,29.035-3.363c1.927,9.626,3.546,18.914,4.892,27.842
		C286.592,526.536,279.464,527.656,272.36,529.648z M295.014,610.944c-17.918-0.002-29.703-3.344-34.079-9.664
		c-2.867-4.142-2.793-9.819,0.232-17.87c1.265-3.364,2.521-3.885,14.081-2.318c6.302,0.854,14.146,1.916,23.325,1.111
		c0.204-0.019,0.404-0.025,0.608-0.041c0.454,10.52,0.531,20.184,0.352,28.943C298.055,611.004,296.551,610.944,295.014,610.944z
		 M310.016,612.732c0.216-9.127,0.163-19.224-0.296-30.236c37.107,5.26,57.953,52.224,60.295,57.785
		c-2.115,7.608-4.432,15.399-6.975,23.402C355.456,646.798,339.106,619.865,310.016,612.732z"/>
	<path fill="#852E8E" stroke="#000000" stroke-miterlimit="10" d="M341.909,366.524c-1.026-0.512-25.531-12.413-61.073,0.591
		c-2.727,0.998-4.129,4.017-3.132,6.745c0.78,2.131,2.794,3.452,4.939,3.452c0.601,0,1.21-0.103,1.807-0.321
		c30.959-11.329,52.437-1.214,52.774-1.052c2.594,1.285,5.741,0.229,7.036-2.361C345.561,370.982,344.507,367.824,341.909,366.524z"
		/>
	<path fill="#852E8E" stroke="#000000" stroke-miterlimit="10" d="M320.373,471.24c0.014,0,0.027,0,0.041,0
		c0.192-0.001,0.382-0.002,0.574-0.002c26.41,0,47.021,13.807,47.353,14.031c0.909,0.624,1.945,0.923,2.97,0.923
		c1.673,0,3.318-0.798,4.338-2.28c1.646-2.394,1.038-5.666-1.355-7.312c-0.95-0.652-23.441-15.88-53.294-15.88
		c-0.221,0-0.444,0.002-0.666,0.003c-2.903,0.022-5.239,2.394-5.219,5.298C315.138,468.913,317.488,471.24,320.373,471.24z"/>
	<path fill="#852E8E" stroke="#000000" stroke-miterlimit="10" d="M321.094,648.533c-2.533-1.42-5.738-0.517-7.157,2.019
		c-1.419,2.534-0.515,5.739,2.019,7.157c13.215,7.401,17.25,20.173,17.324,20.413c0.677,2.285,2.769,3.767,5.039,3.767
		c0.487,0,0.983-0.068,1.475-0.212c2.788-0.813,4.389-3.732,3.576-6.521C343.167,674.466,338.24,658.134,321.094,648.533z"/>
</g>
</svg>
