<?xml version="1.0" encoding="utf-8"?>
<!-- Generator: Adobe Illustrator 16.0.0, SVG Export Plug-In . SVG Version: 6.00 Build 0)  -->
<!DOCTYPE svg PUBLIC "-//W3C//DTD SVG 1.1//EN" "http://www.w3.org/Graphics/SVG/1.1/DTD/svg11.dtd">
<svg version="1.1" id="Capa_1" xmlns="http://www.w3.org/2000/svg" xmlns:xlink="http://www.w3.org/1999/xlink" x="0px" y="0px"
	 width="612px" height="792px" viewBox="0 0 612 792" enable-background="new 0 0 612 792" xml:space="preserve">
<path fill="#852E8E" d="M395.5,374.224l48.338-28.201l-24.461-42.812c-8.045-14.086-26.108-18.804-40.018-10.452
	c-8.963,5.38-13.868,14.865-13.938,24.646l-0.197-0.375h-98.71h-24.707h-7.887c-25.605,0-46.374,20.769-46.374,46.384
	c0,7.423,1.876,14.68,5.271,21.242l-5.271,1.471l-49.354,29.613l39.483,69.098l39.484,78.968l138.192-78.968h98.71L395.5,374.224z"
	/>
<g>
	<path fill="#DDDDDD" stroke="#333333" stroke-miterlimit="10" d="M591.211,348.135C604.429,331.187,612,310.005,612,287.42
		c0-27.54-11.362-52.455-29.613-70.369v-38.212c0-48.979-39.859-88.839-88.839-88.839H118.451c-48.979,0-88.84,39.859-88.84,88.839
		v167.808C13.286,346.645,0,359.931,0,376.259v157.937v78.968c0,16.326,13.286,29.612,29.611,29.612h9.871V702h78.969v-59.226
		h375.097V702h78.968v-59.226h9.871c16.326,0,29.612-13.286,29.612-29.612v-59.227c0-3.355-0.761-6.604-1.865-9.732
		c1.146-3.139,1.865-6.484,1.865-10.009V376.259C612,363.021,603.215,351.917,591.211,348.135z M592.258,534.194
		c0,5.438-4.434,9.871-9.871,9.871h-39.484c-5.438,0-9.87-4.433-9.87-9.871v-93.015l24.914-39.158
		c4.816-7.571,6.209-16.869,3.811-25.518c-0.246-0.897-0.69-1.707-1.018-2.575c4.126-2.262,8.056-4.777,11.768-7.552v0.011h9.871
		c5.438,0,9.87,4.432,9.87,9.87v157.937H592.258z M513.289,524.323H306.148l51.822-29.612h116.518
		c15.329,0,29.396-7.72,37.618-20.649l1.186-1.856v52.118H513.289z M204.329,564.892c5.054,8.42,2.31,19.377-6.11,24.431
		c-4.304,2.576-9.309,3.238-14.136,1.826c-4.816-1.401-8.706-4.649-10.946-9.131l-24.618-49.236c0.178,0,0.355,0.03,0.523,0.03
		c6.938,0,13.76-1.876,19.88-5.548c4.215-2.527,7.729-5.774,10.592-9.427l9.063,15.861L204.329,564.892z M98.709,483.447
		l16.327,29.376c1.372,2.479,3.021,4.729,4.837,6.802l2.349,4.698H98.709V483.447z M188.516,397.056l20.176,33.631l16.93-10.158
		l-23.01-38.339c-3.396-5.666-5.191-12.161-5.191-18.774c0-20.137,16.376-36.513,36.513-36.513h122.785
		c0.818,3.248,1.904,6.456,3.611,9.525l75.197,135.342c0.622,1.115,1.362,2.142,2.063,3.198h-76.648l-26.307-43.849
		c2.605-14.964-0.1-30.916-8.923-44.637l-24.175-35.525l-16.315,11.104l24.035,35.309c12.507,19.456,7.019,45.714-12.21,58.545
		c-8.52,5.677-18.766,8.104-28.941,6.831l-63.224-7.905l-23.868,15.911l-7.917-13.85l-20.591-38.24L188.516,397.056z
		 M541.294,391.42l-45.842,72.04c-4.58,7.204-12.418,11.509-20.966,11.509c-9.021,0-17.334-4.896-21.717-12.782l-45.485-81.88
		l33.346-20.01l32.73,57.281l-7.926,12.676l16.741,10.463l38.813-62.108c3.297-5.271,9.979-7.146,15.547-4.362
		c3.079,1.539,5.281,4.215,6.199,7.531S543.14,388.518,541.294,391.42z M485.237,398.576l-12.013-21.023
		c6.644,2.971,13.651,5.251,20.976,6.691L485.237,398.576z M430.827,343.151l-33.137,19.88l-20.106-36.197
		c-5.024-9.041-2.015-20.294,6.859-25.613c3.011-1.808,6.366-2.726,9.772-2.726c1.618,0,3.247,0.207,4.855,0.632
		c5.004,1.304,9.17,4.501,11.736,8.992L430.827,343.151z M155.882,466.607l9.871,18.33c4.837,8.993,1.776,20.146-6.988,25.398
		c-4.472,2.685-9.713,3.425-14.747,2.063c-5.034-1.353-9.2-4.601-11.737-9.161l-25.546-45.988
		c-2.596-4.679-1.035-10.503,3.555-13.257l24.332-14.6L155.882,466.607z M220.833,550.344l-33.227-58.141
		c-0.028-0.7,0.049-1.4-0.028-2.103l22.13-14.747l55.938,6.988c14.865,1.876,29.89-1.688,42.346-9.989
		c7.245-4.837,13.14-10.986,17.602-17.926l16.108,26.849L220.833,550.344z M592.258,287.42c0,30.462-17.324,57.559-44.38,70.774
		c-0.85-0.533-1.619-1.155-2.519-1.608c-13.897-6.948-30.343-2.794-39.482,9.428c-40.076-3.751-71.556-37.551-71.556-78.594
		c0-43.541,35.427-78.968,78.968-78.968S592.258,243.879,592.258,287.42z M49.355,178.839c0-38.102,30.995-69.097,69.098-69.097
		h375.097c38.102,0,69.097,30.995,69.097,69.097v23.228c-14.54-8.439-31.37-13.355-49.354-13.355
		c-53.539,0-97.17,42.88-98.58,96.084c-3.287-2.043-6.792-3.761-10.651-4.768c-10.167-2.665-20.749-1.155-29.79,4.274
		c-8.895,5.34-14.866,13.632-17.433,22.859H233.932c-31.015,0-56.255,25.24-56.255,56.255c0,5.36,0.81,10.651,2.301,15.744
		l-55.148,33.088l0,0l-24.697,14.816c-0.514,0.315-0.928,0.721-1.422,1.066v-51.873c0-16.326-13.286-29.612-29.612-29.612H49.355
		V178.839z M19.741,376.259c0-5.438,4.433-9.87,9.87-9.87h39.484c5.438,0,9.871,4.432,9.871,9.87v157.937
		c0,5.438-4.433,9.871-9.871,9.871H29.613c-5.438,0-9.87-4.433-9.87-9.871L19.741,376.259L19.741,376.259z M98.709,682.26H59.226
		v-39.484h39.483V682.26z M552.774,682.26h-39.484v-39.484h39.483L552.774,682.26L552.774,682.26z M582.387,623.033h-9.871h-78.968
		H118.451H39.484h-9.871c-5.438,0-9.87-4.433-9.87-9.871V561.99c3.1,1.106,6.396,1.816,9.87,1.816h39.484
		c12.853,0,23.71-8.281,27.797-19.741h35.199l23.395,46.778c4.67,9.328,13.079,16.346,23.089,19.258
		c3.426,0.997,6.948,1.49,10.474,1.49c6.751,0,13.464-1.815,19.347-5.351c8.599-5.151,14.668-13.354,17.106-23.088
		c1.104-4.412,1.293-8.894,0.829-13.228l45.269-25.861h243.507c4.086,11.46,14.944,19.741,27.796,19.741h39.484
		c3.475,0,6.771-0.71,9.871-1.816v51.172C592.258,618.6,587.824,623.033,582.387,623.033z"/>
	<polygon fill="#DDDDDD" stroke="#333333" stroke-miterlimit="10" points="355.355,267.677 355.355,247.935 331.023,247.935 
		357.349,208.452 296.129,208.452 296.129,228.193 320.461,228.193 294.135,267.677 	"/>
	<polygon fill="#DDDDDD" stroke="#333333" stroke-miterlimit="10" points="286.258,188.71 286.258,168.969 261.926,168.969 
		288.252,129.484 227.032,129.484 227.032,149.226 251.365,149.226 225.038,188.71 	"/>
</g>
</svg>
