<?xml version="1.0" encoding="utf-8"?>
<!-- Generator: Adobe Illustrator 16.0.0, SVG Export Plug-In . SVG Version: 6.00 Build 0)  -->
<!DOCTYPE svg PUBLIC "-//W3C//DTD SVG 1.1//EN" "http://www.w3.org/Graphics/SVG/1.1/DTD/svg11.dtd">
<svg version="1.1" id="Layer_1" xmlns="http://www.w3.org/2000/svg" xmlns:xlink="http://www.w3.org/1999/xlink" x="0px" y="0px"
	 width="612px" height="792px" viewBox="0 0 612 792" enable-background="new 0 0 612 792" xml:space="preserve">
<g>
	<path fill="#6F2D91" d="M266.516,513.01l-10.907-1.154c-69.058-7.295-101.632-27.718-102.993-28.577l-6.762-4.323l84.248-221.149
		h36.414V513.01z"/>
	<path fill="#6F2D91" d="M345.484,513.01V257.806h36.414l84.239,221.149l-6.762,4.323c-1.362,0.859-33.937,21.272-102.994,28.577
		L345.484,513.01z"/>
</g>
<g>
	<path fill="#333333" d="M365.226,149.226C365.226,116.563,338.662,90,306,90c-32.663,0-59.226,26.563-59.226,59.227
		c0,32.662,26.563,59.226,59.226,59.226C338.662,208.452,365.226,181.888,365.226,149.226z M306,188.71
		c-21.775,0-39.484-17.709-39.484-39.483c0-21.775,17.709-39.484,39.484-39.484c21.774,0,39.483,17.709,39.483,39.484
		C345.484,171.001,327.775,188.71,306,188.71z"/>
	<path fill="#333333" d="M552.399,219.043c-13.908-24.598-40.293-40.204-68.722-40.204c-10.305,0-20.265,2.182-29.612,5.992v-30.67
		c0-19.051-15.498-34.548-34.549-34.548s-34.549,15.497-34.549,34.548v54.291H306h-78.968v-54.291
		c0-19.051-15.498-34.548-34.549-34.548s-34.548,15.497-34.548,34.548V243c0,19.051,15.497,34.549,34.548,34.549h54.291v251.71
		c0,19.051,15.497,34.548,34.548,34.548c9.664,0,18.399-3.978,24.678-10.394c6.277,6.416,15.014,10.394,24.677,10.394
		c19.051,0,34.549-15.497,34.549-34.548v-251.71h54.29c19.051,0,34.549-15.498,34.549-34.549v-36.266
		c8.982-5.251,19.07-8.153,29.612-8.153c22.753,0,43.758,13.346,53.511,33.995l2.518,5.321l5.883,0.315
		c26.168,1.401,46.67,23.029,46.67,49.207c0,27.214-22.141,49.354-49.355,49.354H411.985l7.521,19.742h123.396
		c38.093,0,69.098-31.005,69.098-69.097C612,252.683,586.256,223.692,552.399,219.043z M419.516,139.355
		c8.163,0,14.807,6.643,14.807,14.806v14.807h-29.613v-14.807C404.709,145.998,411.353,139.355,419.516,139.355z M311.784,228.193
		L306,233.978l-5.785-5.785H311.784z M192.484,139.355c8.163,0,14.807,6.643,14.807,14.806v14.807h-29.613v-14.807
		C177.677,145.998,184.321,139.355,192.484,139.355z M345.484,370.671L306,394.361l-39.484-23.69v-14.154h78.968V370.671z
		 M281.323,544.065c-8.163,0-14.807-6.644-14.807-14.807V393.69l29.613,17.768v117.801
		C296.129,537.422,289.486,544.065,281.323,544.065z M330.677,544.065c-8.163,0-14.807-6.644-14.807-14.807V411.458l29.613-17.768
		v135.568C345.484,537.422,338.84,544.065,330.677,544.065z M419.516,257.806h-74.032v78.968h-78.968v-78.968h-74.032
		c-8.163,0-14.807-6.644-14.807-14.807v-54.29h29.613v39.483h49.354c0,5.449,4.423,9.871,9.871,9.871
		c4.245,0,7.788-2.714,9.181-6.465L306,261.903l30.304-30.304c1.392,3.751,4.936,6.465,9.18,6.465c5.448,0,9.871-4.422,9.871-9.871
		h49.354V188.71h29.613V243C434.323,251.163,427.679,257.806,419.516,257.806z"/>
	<path fill="#333333" d="M206.915,564.527c-13.908-24.599-40.293-40.204-68.722-40.204c-28.172,0-54.3,15.3-68.317,39.493
		c-0.256-0.01-0.522-0.01-0.779-0.01C31.005,563.806,0,594.811,0,632.903C0,670.996,31.005,702,69.097,702h128.322
		c38.092,0,69.097-31.004,69.097-69.097C266.516,598.168,240.773,569.177,206.915,564.527z M197.419,682.259H69.097
		c-27.215,0-49.355-22.141-49.355-49.355c0-27.214,22.141-49.354,49.355-49.354c1.846,0,3.662,0.128,5.458,0.326l7.038,0.779
		l3.001-6.406c9.723-20.769,30.768-34.183,53.6-34.183c22.753,0,43.758,13.345,53.511,33.995l2.517,5.32l5.883,0.316
		c26.168,1.401,46.671,23.028,46.671,49.206C246.775,660.118,224.634,682.259,197.419,682.259z"/>
</g>
</svg>
