<?xml version="1.0" encoding="utf-8"?>
<!-- Generator: Adobe Illustrator 16.0.0, SVG Export Plug-In . SVG Version: 6.00 Build 0)  -->
<!DOCTYPE svg PUBLIC "-//W3C//DTD SVG 1.1//EN" "http://www.w3.org/Graphics/SVG/1.1/DTD/svg11.dtd">
<svg version="1.1" id="Layer_1" xmlns="http://www.w3.org/2000/svg" xmlns:xlink="http://www.w3.org/1999/xlink" x="0px" y="0px"
	 width="612px" height="792px" viewBox="0 0 612 792" enable-background="new 0 0 612 792" xml:space="preserve">
<g>
	<path fill="#333333" d="M161.731,650.038c-59.569,0-108.038-48.469-108.038-108.048h19.631c0,48.753,39.664,88.417,88.407,88.417
		V650.038z"/>
	<path fill="#333333" d="M161.731,702C73.5,702,1.73,630.22,1.73,541.99h19.631c0,77.404,62.976,140.38,140.37,140.38
		c54.397,0,104.377-31.891,127.345-81.232l5.398-11.603l9.806,8.216c18.443,15.47,41.883,23.979,65.999,23.979
		c41.362,0,67.294-13.389,102.767-53.053l0.01,0.01c29.712-33.127,80.496-38.005,97.654-38.692
		c13.201-22.958,19.729-50.304,19.944-83.392c0.923-140.851-123.33-315.634-149.646-322.848c-8.932-2.435-26.885,0.049-47.684,2.954
		c-22.732,3.16-50.784,7.234-81.771,6.949c-7.823,11.984-29.279,47.438-29.907,76.364c15.558,8.99,70.936,37.484,125.165,23.341
		c2.347-2.042,7.273-16.893,9.296-30.212l0.696-4.555l3.946-2.375c13.417-8.098,29.829-5.477,41.755,6.704
		c29.485,30.064,52.64,125.716,24.322,170.611c-20.966,33.254-25.972,41.951-27.287,64.389l-1.227,20.897l-15.282-14.301
		c-17.688-16.568-40.94-24.284-73.174-24.284c-34.512,0-63.368,12.868-81.252,36.22l-7.773,10.129l-7.794-10.119
		c-26.815-34.854-67.393-54.839-111.297-54.839c-28.131,0-55.261,8.284-78.483,23.969l-11.818-15.694l0.697-0.491
		c26.6-17.972,57.538-27.414,89.595-27.414c46.044,0,88.869,19.277,119.228,53.288c21.712-22.458,52.807-34.688,88.898-34.688
		c29.289,0,53.141,6.057,72.349,18.453c3.76-17.521,12.063-30.692,28.023-55.997c21.652-34.334,5.045-119.09-21.731-146.396
		c-4.378-4.456-9.246-6.242-13.889-5.163c-2.915,15.695-9.335,37.338-22.841,40.862c-72.241,18.815-142.264-26.59-145.209-28.534
		l-4.063-2.679l-0.333-4.85c-2.896-42.805,34.608-95.965,36.198-98.213l3.004-4.211l5.173,0.099
		c31.537,0.618,60.698-3.455,84.059-6.704c24.823-3.455,42.746-5.958,55.585-2.444c36.101,9.895,165.056,192.608,164.084,341.91
		c-0.245,38.486-8.883,71.524-25.657,98.193l-2.936,4.672l-5.525-0.078c-0.589-0.01-59.227-0.462-88.564,32.361l-0.01-0.01
		c-38.811,43.374-70.612,59.501-117.313,59.501c-24.637,0-48.685-7.47-68.904-21.221C273.263,670.238,219.691,702,161.731,702z"/>
</g>
<g>
	<rect x="50.768" y="171.841" fill="#6F2D91" width="19.631" height="107.97"/>
	<rect x="50.768" y="299.441" fill="#6F2D91" width="19.631" height="19.631"/>
	<rect x="50.768" y="338.703" fill="#6F2D91" width="19.631" height="19.631"/>
	<rect x="99.845" y="142.394" fill="#6F2D91" width="19.631" height="98.154"/>
	<rect x="99.845" y="260.179" fill="#6F2D91" width="19.631" height="19.631"/>
	<rect x="99.845" y="299.441" fill="#6F2D91" width="19.631" height="19.631"/>
	<rect x="148.922" y="171.841" fill="#6F2D91" width="19.63" height="127.601"/>
	<rect x="148.922" y="319.072" fill="#6F2D91" width="19.63" height="19.631"/>
	<polygon fill="#6F2D91" points="191.521,188.988 109.699,116.266 27.878,188.988 14.843,174.324 109.699,90 204.555,174.324 	"/>
</g>
</svg>
