<?xml version="1.0" encoding="utf-8"?>
<!-- Generator: Adobe Illustrator 16.0.0, SVG Export Plug-In . SVG Version: 6.00 Build 0)  -->
<!DOCTYPE svg PUBLIC "-//W3C//DTD SVG 1.1//EN" "http://www.w3.org/Graphics/SVG/1.1/DTD/svg11.dtd">
<svg version="1.1" id="Layer_1" xmlns="http://www.w3.org/2000/svg" xmlns:xlink="http://www.w3.org/1999/xlink" x="0px" y="0px"
	 width="612px" height="792px" viewBox="0 0 612 792" enable-background="new 0 0 612 792" xml:space="preserve">
<g>
	<path fill="#DDDDDD" stroke="#333333" stroke-miterlimit="10" d="M161.731,650.038c-59.568,0-108.038-48.469-108.038-108.048
		h19.632c0,48.753,39.663,88.417,88.406,88.417V650.038z"/>
	<path fill="#DDDDDD" stroke="#333333" stroke-miterlimit="10" d="M161.731,702C73.5,702,1.73,630.22,1.73,541.99h19.631
		c0,77.404,62.977,140.38,140.37,140.38c54.397,0,104.377-31.891,127.346-81.231l5.397-11.604l9.806,8.217
		c18.443,15.47,41.883,23.979,65.999,23.979c41.362,0,67.294-13.389,102.768-53.053l0.01,0.01
		c29.712-33.127,80.496-38.005,97.654-38.692c13.2-22.958,19.729-50.304,19.943-83.392
		c0.923-140.852-123.33-315.634-149.646-322.849c-8.933-2.435-26.885,0.05-47.685,2.954c-22.731,3.16-50.783,7.234-81.771,6.949
		c-7.823,11.984-29.279,47.438-29.907,76.364c15.559,8.99,70.937,37.483,125.165,23.341c2.347-2.042,7.273-16.893,9.296-30.212
		l0.696-4.555l3.946-2.375c13.417-8.099,29.828-5.478,41.755,6.703c29.484,30.064,52.64,125.717,24.321,170.611
		c-20.966,33.254-25.972,41.951-27.286,64.39l-1.228,20.896l-15.282-14.301c-17.688-16.568-40.939-24.284-73.174-24.284
		c-34.512,0-63.368,12.868-81.252,36.22l-7.772,10.13l-7.794-10.119c-26.815-34.854-67.394-54.84-111.297-54.84
		c-28.132,0-55.262,8.284-78.483,23.97l-11.818-15.694l0.697-0.491c26.6-17.972,57.538-27.414,89.595-27.414
		c46.044,0,88.869,19.277,119.229,53.288c21.712-22.458,52.807-34.688,88.897-34.688c29.289,0,53.142,6.057,72.349,18.453
		c3.761-17.521,12.063-30.692,28.023-55.997c21.652-34.334,5.045-119.091-21.73-146.396c-4.379-4.456-9.246-6.242-13.89-5.163
		c-2.915,15.695-9.335,37.338-22.841,40.862c-72.241,18.814-142.264-26.59-145.209-28.534l-4.063-2.679l-0.333-4.851
		c-2.896-42.805,34.607-95.965,36.197-98.213l3.004-4.211l5.173,0.1c31.537,0.617,60.698-3.455,84.06-6.704
		c24.823-3.455,42.746-5.958,55.585-2.444c36.101,9.896,165.056,192.608,164.084,341.91c-0.245,38.486-8.883,71.524-25.657,98.193
		l-2.936,4.672l-5.525-0.078c-0.589-0.01-59.227-0.462-88.563,32.361l-0.011-0.011c-38.811,43.374-70.611,59.501-117.313,59.501
		c-24.637,0-48.686-7.47-68.904-21.221C273.263,670.238,219.691,702,161.731,702z"/>
</g>
<g>
	<rect x="50.768" y="171.841" fill="#852E8E" width="19.631" height="107.971"/>
	<rect x="50.768" y="299.441" fill="#852E8E" width="19.631" height="19.631"/>
	<rect x="50.768" y="338.703" fill="#852E8E" width="19.631" height="19.631"/>
	<rect x="99.845" y="142.394" fill="#852E8E" width="19.631" height="98.153"/>
	<rect x="99.845" y="260.179" fill="#852E8E" width="19.631" height="19.631"/>
	<rect x="99.845" y="299.441" fill="#852E8E" width="19.631" height="19.631"/>
	<rect x="148.922" y="171.841" fill="#852E8E" width="19.63" height="127.602"/>
	<rect x="148.922" y="319.072" fill="#852E8E" width="19.63" height="19.631"/>
	<polygon fill="#852E8E" points="191.521,188.988 109.699,116.266 27.878,188.988 14.843,174.324 109.699,90 204.555,174.324 	"/>
</g>
</svg>
