<?xml version="1.0" encoding="utf-8"?>
<!-- Generator: Adobe Illustrator 16.0.0, SVG Export Plug-In . SVG Version: 6.00 Build 0)  -->
<!DOCTYPE svg PUBLIC "-//W3C//DTD SVG 1.1//EN" "http://www.w3.org/Graphics/SVG/1.1/DTD/svg11.dtd">
<svg version="1.1" id="Layer_1" xmlns="http://www.w3.org/2000/svg" xmlns:xlink="http://www.w3.org/1999/xlink" x="0px" y="0px"
	 width="612px" height="792px" viewBox="0 0 612 792" enable-background="new 0 0 612 792" xml:space="preserve">
<circle fill="#6F2D91" cx="301.034" cy="445.355" r="187.548"/>
<g>
	<path fill="#FFFFFF" d="M172.752,405.871c-16.327,0-29.613,13.286-29.613,29.613v29.613c0,16.326,13.286,29.612,29.613,29.612
		c16.326,0,29.612-13.286,29.612-29.612v-29.613C202.365,419.157,189.078,405.871,172.752,405.871z M182.622,465.097
		c0,5.448-4.432,9.87-9.87,9.87c-5.439,0-9.871-4.422-9.871-9.87v-29.613c0-5.449,4.432-9.871,9.871-9.871
		c5.438,0,9.87,4.422,9.87,9.871V465.097z"/>
	<path fill="#FFFFFF" d="M241.849,405.871c-16.327,0-29.613,13.286-29.613,29.613v29.613c0,16.326,13.286,29.612,29.613,29.612
		c16.326,0,29.612-13.286,29.612-29.612v-29.613C271.461,419.157,258.175,405.871,241.849,405.871z M251.72,465.097
		c0,5.448-4.433,9.87-9.871,9.87c-5.439,0-9.871-4.422-9.871-9.87v-29.613c0-5.449,4.432-9.871,9.871-9.871
		c5.438,0,9.871,4.422,9.871,9.871V465.097z"/>
	<polygon fill="#FFFFFF" points="340.558,425.613 350.429,425.613 350.429,494.71 370.171,494.71 370.171,405.871 340.558,405.871 	
		"/>
	<path fill="#FFFFFF" d="M419.526,435.484h-9.871v-9.871h29.613v-19.742h-49.355v49.355h29.613c5.439,0,9.871,4.422,9.871,9.871
		c0,5.448-4.432,9.87-9.871,9.87h-9.871c-5.438,0-9.871-4.422-9.871-9.87h-19.741c0,16.326,13.286,29.612,29.612,29.612h9.871
		c16.327,0,29.613-13.286,29.613-29.612C449.139,448.77,435.853,435.484,419.526,435.484z"/>
	<rect x="291.164" y="415.742" fill="#FFFFFF" width="19.741" height="19.742"/>
	<rect x="291.164" y="465.097" fill="#FFFFFF" width="19.741" height="19.741"/>
	<path fill="#333333" d="M508.878,281.102c6.159,4.066,13.474,6.317,20.896,6.317c20.848,0,37.796-16.959,37.796-37.796
		c0-9.95-4.037-19.683-11.075-26.721l-52.74-52.741c-7.137-7.137-16.623-11.065-26.721-11.065
		c-20.838,0-37.786,16.949-37.786,37.786c0,7.552,2.201,14.768,6.297,20.917l-9.427,9.427
		c-26.532-16.494-55.297-27.816-85.709-33.739v-14.648h2.98c24.737,0,45.081-18.469,46.315-42.05
		c0.651-12.329-3.662-24.026-12.132-32.949C379.223,95.044,367.486,90,355.355,90H248.729c-24.727,0-45.071,18.469-46.305,42.041
		c-0.642,12.318,3.662,24.025,12.131,32.949c8.352,8.805,20.098,13.849,32.229,13.849h4.936v14.658
		c-126.24,24.48-214.645,138.115-206.807,267.79c8.024,132.666,118.56,238.384,251.65,240.674c1.52,0.029,3.04,0.039,4.56,0.039
		c67.734,0,131.452-26.039,179.829-73.607c49.493-48.654,76.747-113.654,76.747-183.047c0-57.321-19.396-113.171-54.804-158.262
		L508.878,281.102z M537.978,445.355c0,64.053-25.161,124.059-70.845,168.961c-45.673,44.894-106.073,69.077-170.234,67.902
		c-122.844-2.103-224.88-99.677-232.283-222.126c-7.394-122.321,77.961-229.185,198.545-248.591l8.301-1.332v-31.331h39.484v-19.742
		h-39.484h-9.871h-14.806c-6.841,0-13.198-2.733-17.906-7.699c-4.708-4.955-7.107-11.46-6.742-18.32
		c0.672-12.862,12.605-23.335,26.593-23.335v0.01h106.646c6.831,0,13.188,2.734,17.896,7.689c4.708,4.955,7.097,11.46,6.741,18.32
		c-0.681,12.862-12.615,23.335-26.602,23.335h-22.724v51.083l8.302,1.332c33.324,5.36,64.625,17.649,93.034,36.543l6.731,4.481
		l20.256-20.246l12.753,12.754l13.958-13.958l-19.742-19.742l0,0l-1.688-1.688c-3.405-3.405-5.28-7.937-5.28-12.764
		c0-9.949,8.094-18.044,18.044-18.044c4.827,0,9.357,1.876,12.763,5.281l52.741,52.74c3.365,3.356,5.29,8.016,5.29,12.764
		c0,9.96-8.104,18.054-18.054,18.054c-4.748,0-9.407-1.935-12.763-5.291l-8.667-8.666l-32.13,32.12l5.854,6.929
		C518.127,335.471,537.978,389.653,537.978,445.355z"/>
	<rect x="291.164" y="297.291" fill="#2D2D2D" width="19.741" height="19.741"/>
	<rect x="330.648" y="297.291" fill="#2D2D2D" width="19.742" height="19.741"/>
	<rect x="251.68" y="297.291" fill="#2D2D2D" width="19.742" height="19.741"/>
	<rect x="291.164" y="573.677" fill="#2D2D2D" width="19.741" height="19.742"/>
	<rect x="330.648" y="573.677" fill="#2D2D2D" width="19.742" height="19.742"/>
	<rect x="251.68" y="573.677" fill="#2D2D2D" width="19.742" height="19.742"/>
</g>
</svg>
