<?xml version="1.0" encoding="utf-8"?>
<!-- Generator: Adobe Illustrator 16.0.0, SVG Export Plug-In . SVG Version: 6.00 Build 0)  -->
<!DOCTYPE svg PUBLIC "-//W3C//DTD SVG 1.1//EN" "http://www.w3.org/Graphics/SVG/1.1/DTD/svg11.dtd">
<svg version="1.1" id="Layer_1" xmlns="http://www.w3.org/2000/svg" xmlns:xlink="http://www.w3.org/1999/xlink" x="0px" y="0px"
	 width="612px" height="792px" viewBox="0 0 612 792" enable-background="new 0 0 612 792" xml:space="preserve">
<path fill="#852E8E" stroke="#FFFFFF" stroke-miterlimit="10" d="M394.848,385.951c0-36.313,3.001-72.571,8.973-108.383
	l10.771-64.625l-49.354-9.871l-1.757,10.542c-4.68,28.093-28.991,48.684-57.469,48.684s-52.79-20.591-57.469-48.684l-1.757-10.542
	l-49.355,9.871l10.771,64.625c5.972,35.822,8.973,72.078,8.973,108.383c0,27.057-15.29,51.784-39.483,63.887l19.741,138.192v9.871
	c0,0,46.403-9.871,108.581-9.871c62.177,0,108.58,9.871,108.58,9.871v-9.871l19.742-138.192
	C410.128,437.735,394.848,413.008,394.848,385.951z"/>
<path fill="#DDDDDD" stroke="#333333" stroke-miterlimit="10" d="M612,163.578v-19.741H544.69l-1.975,9.87H375.097
	c0-4.086,0-8.242,0-8.242c20.688-8.509,38.21-21.519,47.677-35.604l1.678-2.497V94.481H404.71v6.702
	c-10.099,13.157-28.438,23.107-42.78,28.191l-6.574,2.319v22.012h-98.71v-22.012l-6.573-2.319
	c-14.343-5.073-32.684-15.034-42.78-28.191v-6.702H187.55v12.882l1.679,2.507c9.477,14.066,26.997,27.086,47.677,35.595v8.242
	H69.294l-1.976-9.87H0v19.741h51.142l7.61,38.093l-19.27,38.536v34.114l74.389,161.173l23.542-176.592l53.215-26.604l7.816,46.889
	c5.863,35.17,8.835,71.101,8.835,106.764c0,18.558-8.241,35.536-22.031,47.057l-2.773-19.417l-40.915,95.473H85.068L18.705,376.317
	l-17.659,8.835l71.821,143.652h81.701l18.32-42.723l14.59,102.194l-9.763,107.437l19.663,1.796l8.291-91.118
	c14.393-2.566,52.8-8.499,100.328-8.499c47.538,0,85.938,5.933,100.328,8.499l8.292,91.129l19.662-1.797l-9.762-107.445
	l14.599-102.193l18.312,42.722h81.702l71.831-143.652l-17.659-8.835l-66.372,132.745H470.44l-40.905-95.472l-2.773,19.416
	c-13.8-11.521-22.052-28.509-22.052-47.065c0-35.624,2.98-71.555,8.845-106.764l7.808-46.889l53.226,26.612l23.542,176.592
	l74.388-161.173v-34.114l-19.27-38.536l7.621-38.093H612L612,163.578z M128.323,173.449v9.871h19.742v-9.871h315.87v9.871h19.742
	v-9.871h55.09l-3.948,19.742H77.191l-3.947-19.742H128.323z M353.489,212.933c-4.293,22.92-24.075,39.482-47.487,39.482
	c-23.414,0-43.176-16.563-47.479-39.482H353.489z M119.232,245.922L103.29,365.469l-44.064-95.482v-25.111l15.972-31.941H185.21
	L119.232,245.922z M423.621,454.95l-18.744,131.137c-17.748-2.962-54.073-7.928-98.877-7.928c-44.806,0-81.141,4.966-98.889,7.928
	L188.377,454.95c23.947-14.736,38.646-40.472,38.636-68.988c0-36.76-3.07-73.767-9.102-110.013l-8.824-52.889l20.255-10.127h9.062
	l0.386,2.29c5.487,32.987,33.749,56.936,67.2,56.936c33.443,0,61.704-23.947,67.212-56.936l0.386-2.29h9.052l20.245,10.116
	l-8.814,52.89c-6.041,36.286-9.11,73.292-9.11,110.012C384.967,414.478,399.675,440.214,423.621,454.95z M552.774,269.987
	l-44.063,95.482l-15.942-119.549l-65.977-32.987h110.012l15.971,31.941L552.774,269.987L552.774,269.987z"/>
</svg>
