<?xml version="1.0" encoding="utf-8"?>
<!-- Generator: Adobe Illustrator 16.0.0, SVG Export Plug-In . SVG Version: 6.00 Build 0)  -->
<!DOCTYPE svg PUBLIC "-//W3C//DTD SVG 1.1//EN" "http://www.w3.org/Graphics/SVG/1.1/DTD/svg11.dtd">
<svg version="1.1" id="Layer_1" xmlns="http://www.w3.org/2000/svg" xmlns:xlink="http://www.w3.org/1999/xlink" x="0px" y="0px"
	 width="612px" height="792px" viewBox="0 0 612 792" enable-background="new 0 0 612 792" xml:space="preserve">
<g>
	<path fill="#6F2D91" d="M493.571,406.113c0,0-76.949,19.744-187.561,19.744s-187.561-19.744-187.561-19.744l-5.992-1.5
		c-7.857,32.773-12.251,66.357-13.287,100.246c4.758,0.286,66.288,4.255,108.124,19.714c43.533,16.091,69.101,49.358,69.101,49.358
		h19.743h19.743h19.743c0,0,25.567-33.268,69.102-49.358c41.836-15.459,103.375-19.428,108.124-19.714
		c-1.018-33.721-5.391-67.137-13.179-99.763L493.571,406.113z"/>
	<rect x="0" y="198.809" fill="#6F2D91" width="19.743" height="19.744"/>
	<rect x="39.447" y="198.809" fill="#6F2D91" width="19.743" height="19.744"/>
	<polygon fill="#6F2D91" points="109.624,243.756 127.284,252.581 149.239,208.681 127.284,164.782 109.624,173.607 122.22,198.809 
		78.973,198.809 78.973,218.553 122.22,218.553 	"/>
	<rect x="592.256" y="198.809" fill="#6F2D91" width="19.744" height="19.744"/>
	<rect x="552.77" y="198.809" fill="#6F2D91" width="19.743" height="19.744"/>
	<polygon fill="#6F2D91" points="502.406,173.607 484.745,164.782 462.79,208.681 484.745,252.581 502.406,243.756 489.809,218.553 
		533.067,218.553 533.067,198.809 489.809,198.809 	"/>
</g>
<g>
	<path fill="#333333" d="M463.827,282.462c-12.823-24.047-19.605-51.164-19.605-78.43c0-15.646,2.201-31.204,6.535-46.219
		l15.873-54.985l-18.973-5.479l-15.874,54.985c-4.847,16.801-7.305,34.194-7.305,51.688c0,30.493,7.581,60.829,21.935,87.729
		c17.848,33.475,31.55,69.022,41.115,105.656c-16.229,3.741-86.554,18.578-181.509,18.578c-94.797,0-165.251-14.837-181.509-18.578
		c9.565-36.624,23.267-72.182,41.115-105.656c14.353-26.899,21.935-57.235,21.935-87.729c0-17.482-2.468-34.877-7.315-51.688
		l-15.863-54.985l-18.974,5.479l15.864,54.985c4.343,15.044,6.545,30.582,6.545,46.219c0,27.256-6.782,54.373-19.605,78.43
		c-38.835,72.823-59.368,154.945-59.368,237.462c0,49.575,4.927,99.377,14.65,148.005l5.281,26.396l19.357-3.88l-5.281-26.396
		c-9.467-47.354-14.264-95.843-14.264-144.135c0-1.481,0.128-2.952,0.138-4.423c19.871,1.747,63.691,6.713,95.152,18.342
		c36.427,13.455,59.743,40.118,63.958,45.202c1.816,4.501,8.568,22.704,8.568,44.254c0,25.676-9.516,66.426-9.614,66.841
		l19.22,4.521c0.415-1.768,10.138-43.386,10.128-71.372c0-15.745-3.04-29.714-5.893-39.477h31.529
		c-2.853,9.763-5.894,23.741-5.894,39.486c0,27.967,9.714,69.595,10.129,71.362l19.22-4.512c-0.099-0.414-9.615-41.135-9.615-66.841
		c0-21.362,6.742-39.664,8.568-44.234c4.156-5.015,27.493-31.747,63.979-45.231c31.411-11.609,75.261-16.574,95.143-18.332
		c0.01,1.471,0.138,2.942,0.138,4.413c0,48.302-4.808,96.791-14.274,144.135l-5.281,26.396l19.358,3.88l5.281-26.396
		c9.724-48.618,14.659-98.42,14.659-148.005C523.195,437.397,502.662,355.285,463.827,282.462z M401.32,515.313
		c-37.235,13.761-61.865,39.072-70.306,48.746h-49.979c-8.44-9.674-33.079-34.975-70.306-48.746
		c-34.6-12.783-81.164-17.887-101.391-19.595c1.342-26.624,4.975-53.061,10.661-79.072c17.127,4.008,88.025,19.082,186.021,19.082
		c98.005,0,168.913-15.084,186.021-19.092c5.676,26.012,9.318,52.458,10.661,79.082C482.475,497.436,435.92,502.54,401.32,515.313z"
		/>
	<path fill="#333333" d="M480.51,436.261c-48.973,16.723-114.945,19.19-115.606,19.22l0.682,19.724
		c2.813-0.099,69.516-2.576,121.302-20.256L480.51,436.261z"/>
</g>
</svg>
